# xmcd CD database file
#
# Track frame offsets:
#	150
#	16876
#	40196
#	75269
#	121502
#	134549
#	147790
#	174502
#	202505
#	218114
#	246819
#
# Disc length: 3511 seconds
#
# Revision: 0
# Processed by: cddbd v1.5.1PL2 Copyright (c) Steve Scherf et al.
# Submitted via: CDex 1.51
#
DISCID=810db50b
DTITLE=Various Artist - Jazz Saxophone - Disk 3
DYEAR=2004
DGENRE=Jazz
TTITLE0=1-Dexter Gordon - So easy
TTITLE1=2-Cannonball Adderley - A littlle taste
TTITLE2=3-Bill Dixon/Archie Shepp - Where poppies bloom
TTITLE3=4-Pepper Adams - Bloos, Blooze, Blues
TTITLE4=5-Art Pepper - Tickle Toe
TTITLE5=6-Charles Parker - Koko
TTITLE6=7-Dexter Gordon - Setting the pace
TTITLE7=8-Gigi Gryce - Nica's tempo
TTITLE8=9-Coleman Hawkins - September song
TTITLE9=10-Cannonball Adderley - Willow weep foe me
TTITLE10=11-Giggi Gryce - Smoke signal
EXTD=YEAR: 2004
EXTT0=
EXTT1=
EXTT2=
EXTT3=
EXTT4=
EXTT5=
EXTT6=
EXTT7=
EXTT8=
EXTT9=
EXTT10=
PLAYORDER=
